<svg xmlns="http://www.w3.org/2000/svg" width="1560" height="980" viewBox="0 0 1560 980" font-family="Helvetica Neue, Helvetica, Arial, sans-serif">
<rect x="0" y="0" width="1560" height="980" rx="8" fill="#F0F2F5" stroke="none" stroke-width="1.5"/>
<rect x="118" y="22" width="1324" height="710" rx="14" fill="white" stroke="#546E7A" stroke-width="2.5"/>
<rect x="118" y="22" width="1324" height="34" rx="14" fill="#546E7A"/>
<rect x="118" y="39" width="1324" height="17" fill="#546E7A"/>
<text x="780" y="39.0" text-anchor="middle" font-size="14" font-weight="bold" fill="white" alignment-baseline="middle">Plataforma Web MEI</text>

<line x1="536.0" y1="60.0" x2="536.0" y2="728.0" stroke="#CFD8DC" stroke-width="1.0"/>

<line x1="1024.0" y1="60.0" x2="1024.0" y2="728.0" stroke="#CFD8DC" stroke-width="1.0"/>

<text x="292" y="74.0" text-anchor="middle" font-size="10" font-weight="bold" fill="#B71C1C" alignment-baseline="middle">cliente</text>

<text x="780" y="74.0" text-anchor="middle" font-size="10" font-weight="bold" fill="#4527A0" alignment-baseline="middle">◄  compartilhado  ►</text>

<text x="1268" y="74.0" text-anchor="middle" font-size="10" font-weight="bold" fill="#1B5E20" alignment-baseline="middle">profissional</text>

<line x1="38.0" y1="375.0" x2="216.1" y2="133.6" stroke="#90A4AE" stroke-width="1.0"/>

<line x1="38.0" y1="375.0" x2="207.6" y2="185.7" stroke="#90A4AE" stroke-width="1.0"/>

<line x1="38.0" y1="375.0" x2="198.8" y2="237.1" stroke="#90A4AE" stroke-width="1.0"/>

<line x1="38.0" y1="375.0" x2="188.2" y2="308.1" stroke="#90A4AE" stroke-width="1.0"/>

<line x1="38.0" y1="375.0" x2="184.3" y2="357.6" stroke="#90A4AE" stroke-width="1.0"/>

<line x1="38.0" y1="375.0" x2="185.0" y2="407.0" stroke="#90A4AE" stroke-width="1.0"/>

<line x1="38.0" y1="375.0" x2="190.1" y2="456.7" stroke="#90A4AE" stroke-width="1.0"/>

<line x1="38.0" y1="375.0" x2="201.1" y2="526.1" stroke="#90A4AE" stroke-width="1.0"/>

<line x1="38.0" y1="375.0" x2="209.9" y2="577.7" stroke="#90A4AE" stroke-width="1.0"/>

<line x1="38.0" y1="375.0" x2="218.1" y2="629.9" stroke="#90A4AE" stroke-width="1.0"/>

<line x1="38.0" y1="375.0" x2="678.4" y2="114.5" stroke="#90A4AE" stroke-width="1.0"/>

<line x1="38.0" y1="375.0" x2="676.3" y2="166.1" stroke="#90A4AE" stroke-width="1.0"/>

<line x1="38.0" y1="375.0" x2="674.5" y2="217.7" stroke="#90A4AE" stroke-width="1.0"/>

<line x1="38.0" y1="375.0" x2="673.1" y2="269.2" stroke="#90A4AE" stroke-width="1.0"/>

<line x1="38.0" y1="375.0" x2="672.3" y2="320.7" stroke="#90A4AE" stroke-width="1.0"/>

<line x1="38.0" y1="375.0" x2="672.2" y2="413.8" stroke="#90A4AE" stroke-width="1.0"/>

<line x1="38.0" y1="375.0" x2="672.8" y2="465.3" stroke="#90A4AE" stroke-width="1.0"/>

<line x1="1522.0" y1="375.0" x2="1343.9" y2="133.6" stroke="#90A4AE" stroke-width="1.0"/>

<line x1="1522.0" y1="375.0" x2="1359.2" y2="225.8" stroke="#90A4AE" stroke-width="1.0"/>

<line x1="1522.0" y1="375.0" x2="1374.6" y2="336.6" stroke="#90A4AE" stroke-width="1.0"/>

<line x1="1522.0" y1="375.0" x2="1375.9" y2="386.0" stroke="#90A4AE" stroke-width="1.0"/>

<line x1="1522.0" y1="375.0" x2="881.6" y2="114.5" stroke="#90A4AE" stroke-width="1.0"/>

<line x1="1522.0" y1="375.0" x2="883.7" y2="166.1" stroke="#90A4AE" stroke-width="1.0"/>

<line x1="1522.0" y1="375.0" x2="885.5" y2="217.7" stroke="#90A4AE" stroke-width="1.0"/>

<line x1="1522.0" y1="375.0" x2="886.9" y2="269.2" stroke="#90A4AE" stroke-width="1.0"/>

<line x1="1522.0" y1="375.0" x2="887.7" y2="320.7" stroke="#90A4AE" stroke-width="1.0"/>

<line x1="1522.0" y1="375.0" x2="887.8" y2="413.8" stroke="#90A4AE" stroke-width="1.0"/>

<line x1="1522.0" y1="375.0" x2="887.2" y2="465.3" stroke="#90A4AE" stroke-width="1.0"/>

<line x1="780.0" y1="875.0" x2="452.6" y2="634.3" stroke="#90A4AE" stroke-width="1.0"/>

<line x1="780.0" y1="875.0" x2="645.5" y2="640.2" stroke="#90A4AE" stroke-width="1.0"/>

<line x1="780.0" y1="875.0" x2="832.4" y2="643.8" stroke="#90A4AE" stroke-width="1.0"/>

<line x1="780.0" y1="875.0" x2="1011.6" y2="636.7" stroke="#90A4AE" stroke-width="1.0"/>

<rect x="170" y="80" width="244" height="176" rx="8" fill="#E8F5E9" stroke="#2E7D32" stroke-width="1.5"/>
<text x="292" y="92.0" text-anchor="middle" font-size="9" font-weight="bold" fill="#2E7D32" alignment-baseline="middle">Busca &amp; Descoberta</text>

<rect x="170" y="270" width="244" height="223" rx="8" fill="#FFF8E1" stroke="#E65100" stroke-width="1.5"/>
<text x="292" y="282.0" text-anchor="middle" font-size="9" font-weight="bold" fill="#E65100" alignment-baseline="middle">Orçamento</text>

<rect x="170" y="508" width="244" height="166" rx="8" fill="#FCE4EC" stroke="#880E4F" stroke-width="1.5"/>
<text x="292" y="520.0" text-anchor="middle" font-size="9" font-weight="bold" fill="#880E4F" alignment-baseline="middle">Serviço</text>

<rect x="658" y="72" width="244" height="274" rx="8" fill="#E3F2FD" stroke="#1565C0" stroke-width="1.5"/>
<text x="780" y="84.0" text-anchor="middle" font-size="9" font-weight="bold" fill="#1565C0" alignment-baseline="middle">Gestão de Conta</text>

<rect x="658" y="383" width="244" height="113" rx="8" fill="#EDE7F6" stroke="#4527A0" stroke-width="1.5"/>
<text x="780" y="395.0" text-anchor="middle" font-size="9" font-weight="bold" fill="#4527A0" alignment-baseline="middle">Compartilhado</text>

<rect x="1146" y="80" width="244" height="68" rx="8" fill="#E0F7FA" stroke="#006064" stroke-width="1.5"/>
<text x="1268" y="92.0" text-anchor="middle" font-size="9" font-weight="bold" fill="#006064" alignment-baseline="middle">Cadastro</text>

<rect x="1146" y="180" width="244" height="68" rx="8" fill="#FFF8E1" stroke="#E65100" stroke-width="1.5"/>
<text x="1268" y="192.0" text-anchor="middle" font-size="9" font-weight="bold" fill="#E65100" alignment-baseline="middle">Orçamento</text>

<rect x="1146" y="298" width="244" height="118" rx="8" fill="#F3E5F5" stroke="#6A1B9A" stroke-width="1.5"/>
<text x="1268" y="310.0" text-anchor="middle" font-size="9" font-weight="bold" fill="#6A1B9A" alignment-baseline="middle">Gestão do Serviço</text>

<rect x="238" y="588" width="982" height="72" rx="8" fill="#ECEFF1" stroke="#455A64" stroke-width="1.5"/>
<text x="729" y="600.0" text-anchor="middle" font-size="9" font-weight="bold" fill="#455A64" alignment-baseline="middle">Ações do Sistema</text>

<line x1="324.8" y1="431.0" x2="327.2" y2="602.0" stroke="#9E9E9E" stroke-width="1.2" stroke-dasharray="5,4"/>
<polygon points="327.2,602.0 331.0,593.0 323.0,593.1" fill="#9E9E9E"/>
<text x="326.0" y="508.5" text-anchor="middle" font-size="8.5" fill="#9E9E9E" font-style="italic">«include»</text>

<line x1="378.6" y1="423.1" x2="491.4" y2="609.9" stroke="#9E9E9E" stroke-width="1.2" stroke-dasharray="5,4"/>
<polygon points="491.4,609.9 490.2,600.1 483.3,604.2" fill="#9E9E9E"/>
<text x="435.0" y="508.5" text-anchor="middle" font-size="8.5" fill="#9E9E9E" font-style="italic">«include»</text>

<line x1="814.7" y1="603.9" x2="833.3" y2="487.1" stroke="#9E9E9E" stroke-width="1.2" stroke-dasharray="5,4"/>
<polygon points="833.3,487.1 828.0,495.4 835.9,496.6" fill="#9E9E9E"/>
<text x="824.0" y="537.5" text-anchor="middle" font-size="8.5" fill="#9E9E9E" font-style="italic">«extend»</text>

<ellipse cx="292" cy="118" rx="108" ry="22" fill="#E8F5E9" stroke="#2E7D32" stroke-width="1.5"/>
<text x="292" y="111.2" text-anchor="middle" font-size="10" font-weight="normal" fill="#111" alignment-baseline="middle">Buscar por</text>
<text x="292" y="124.8" text-anchor="middle" font-size="10" font-weight="normal" fill="#111" alignment-baseline="middle">categoria</text>

<ellipse cx="292" cy="172" rx="108" ry="22" fill="#E8F5E9" stroke="#2E7D32" stroke-width="1.5"/>
<text x="292" y="165.2" text-anchor="middle" font-size="10" font-weight="normal" fill="#111" alignment-baseline="middle">Buscar por</text>
<text x="292" y="178.8" text-anchor="middle" font-size="10" font-weight="normal" fill="#111" alignment-baseline="middle">localização</text>

<ellipse cx="292" cy="226" rx="108" ry="22" fill="#E8F5E9" stroke="#2E7D32" stroke-width="1.5"/>
<text x="292" y="219.2" text-anchor="middle" font-size="10" font-weight="normal" fill="#111" alignment-baseline="middle">Visualizar perfil</text>
<text x="292" y="232.8" text-anchor="middle" font-size="10" font-weight="normal" fill="#111" alignment-baseline="middle">do prestador</text>

<ellipse cx="292" cy="302" rx="108" ry="22" fill="#FFF8E1" stroke="#E65100" stroke-width="1.5"/>
<text x="292" y="295.2" text-anchor="middle" font-size="10" font-weight="normal" fill="#111" alignment-baseline="middle">Solicitar orç.</text>
<text x="292" y="308.8" text-anchor="middle" font-size="10" font-weight="normal" fill="#111" alignment-baseline="middle">geral</text>

<ellipse cx="292" cy="356" rx="108" ry="22" fill="#FFF8E1" stroke="#E65100" stroke-width="1.5"/>
<text x="292" y="349.2" text-anchor="middle" font-size="10" font-weight="normal" fill="#111" alignment-baseline="middle">Solicitar orç.</text>
<text x="292" y="362.8" text-anchor="middle" font-size="10" font-weight="normal" fill="#111" alignment-baseline="middle">direto</text>

<ellipse cx="292" cy="410" rx="108" ry="22" fill="#FFF8E1" stroke="#E65100" stroke-width="1.5"/>
<text x="292" y="403.2" text-anchor="middle" font-size="10" font-weight="normal" fill="#111" alignment-baseline="middle">Aceitar</text>
<text x="292" y="416.8" text-anchor="middle" font-size="10" font-weight="normal" fill="#111" alignment-baseline="middle">orçamento</text>

<ellipse cx="292" cy="464" rx="108" ry="22" fill="#FFF8E1" stroke="#E65100" stroke-width="1.5"/>
<text x="292" y="457.2" text-anchor="middle" font-size="10" font-weight="normal" fill="#111" alignment-baseline="middle">Aprovar ext.</text>
<text x="292" y="470.8" text-anchor="middle" font-size="10" font-weight="normal" fill="#111" alignment-baseline="middle">de prazo</text>

<ellipse cx="292" cy="538" rx="108" ry="22" fill="#FCE4EC" stroke="#880E4F" stroke-width="1.5"/>
<text x="292" y="531.2" text-anchor="middle" font-size="10" font-weight="normal" fill="#111" alignment-baseline="middle">Cancelar</text>
<text x="292" y="544.8" text-anchor="middle" font-size="10" font-weight="normal" fill="#111" alignment-baseline="middle">solicitação</text>

<ellipse cx="292" cy="592" rx="108" ry="22" fill="#FCE4EC" stroke="#880E4F" stroke-width="1.5"/>
<text x="292" y="592.0" text-anchor="middle" font-size="10" font-weight="normal" fill="#111" alignment-baseline="middle">Avaliar serviço</text>

<ellipse cx="292" cy="646" rx="108" ry="22" fill="#FCE4EC" stroke="#880E4F" stroke-width="1.5"/>
<text x="292" y="639.2" text-anchor="middle" font-size="10" font-weight="normal" fill="#111" alignment-baseline="middle">Registrar problema</text>
<text x="292" y="652.8" text-anchor="middle" font-size="10" font-weight="normal" fill="#111" alignment-baseline="middle">na avaliação</text>

<ellipse cx="780" cy="107" rx="108" ry="22" fill="#E3F2FD" stroke="#1565C0" stroke-width="1.5"/>
<text x="780" y="107.0" text-anchor="middle" font-size="10" font-weight="normal" fill="#111" alignment-baseline="middle">Cadastrar conta</text>

<ellipse cx="780" cy="160" rx="108" ry="22" fill="#E3F2FD" stroke="#1565C0" stroke-width="1.5"/>
<text x="780" y="160.0" text-anchor="middle" font-size="10" font-weight="normal" fill="#111" alignment-baseline="middle">Autenticar</text>

<ellipse cx="780" cy="213" rx="108" ry="22" fill="#E3F2FD" stroke="#1565C0" stroke-width="1.5"/>
<text x="780" y="213.0" text-anchor="middle" font-size="10" font-weight="normal" fill="#111" alignment-baseline="middle">Editar perfil</text>

<ellipse cx="780" cy="266" rx="108" ry="22" fill="#E3F2FD" stroke="#1565C0" stroke-width="1.5"/>
<text x="780" y="266.0" text-anchor="middle" font-size="10" font-weight="normal" fill="#111" alignment-baseline="middle">Excluir conta</text>

<ellipse cx="780" cy="319" rx="108" ry="22" fill="#E3F2FD" stroke="#1565C0" stroke-width="1.5"/>
<text x="780" y="319.0" text-anchor="middle" font-size="10" font-weight="normal" fill="#111" alignment-baseline="middle">Alternar perfil</text>

<ellipse cx="780" cy="415" rx="108" ry="22" fill="#EDE7F6" stroke="#4527A0" stroke-width="1.5"/>
<text x="780" y="408.2" text-anchor="middle" font-size="10" font-weight="normal" fill="#111" alignment-baseline="middle">Cancelar</text>
<text x="780" y="421.8" text-anchor="middle" font-size="10" font-weight="normal" fill="#111" alignment-baseline="middle">pós-aceite</text>

<ellipse cx="780" cy="468" rx="108" ry="22" fill="#EDE7F6" stroke="#4527A0" stroke-width="1.5"/>
<text x="780" y="461.2" text-anchor="middle" font-size="10" font-weight="normal" fill="#111" alignment-baseline="middle">Confirmar</text>
<text x="780" y="474.8" text-anchor="middle" font-size="10" font-weight="normal" fill="#111" alignment-baseline="middle">conclusão</text>

<ellipse cx="1268" cy="118" rx="108" ry="22" fill="#E0F7FA" stroke="#006064" stroke-width="1.5"/>
<text x="1268" y="111.2" text-anchor="middle" font-size="10" font-weight="normal" fill="#111" alignment-baseline="middle">Cadastrar</text>
<text x="1268" y="124.8" text-anchor="middle" font-size="10" font-weight="normal" fill="#111" alignment-baseline="middle">serviços</text>

<ellipse cx="1268" cy="214" rx="108" ry="22" fill="#FFF8E1" stroke="#E65100" stroke-width="1.5"/>
<text x="1268" y="207.2" text-anchor="middle" font-size="10" font-weight="normal" fill="#111" alignment-baseline="middle">Responder</text>
<text x="1268" y="220.8" text-anchor="middle" font-size="10" font-weight="normal" fill="#111" alignment-baseline="middle">orçamento</text>

<ellipse cx="1268" cy="333" rx="108" ry="22" fill="#F3E5F5" stroke="#6A1B9A" stroke-width="1.5"/>
<text x="1268" y="326.2" text-anchor="middle" font-size="10" font-weight="normal" fill="#111" alignment-baseline="middle">Atualizar status</text>
<text x="1268" y="339.8" text-anchor="middle" font-size="10" font-weight="normal" fill="#111" alignment-baseline="middle">do serviço</text>

<ellipse cx="1268" cy="387" rx="108" ry="22" fill="#F3E5F5" stroke="#6A1B9A" stroke-width="1.5"/>
<text x="1268" y="380.2" text-anchor="middle" font-size="10" font-weight="normal" fill="#111" alignment-baseline="middle">Solicitar ext.</text>
<text x="1268" y="393.8" text-anchor="middle" font-size="10" font-weight="normal" fill="#111" alignment-baseline="middle">de prazo</text>

<ellipse cx="360" cy="623" rx="108" ry="22" fill="#ECEFF1" stroke="#455A64" stroke-width="1.5"/>
<text x="360" y="616.2" text-anchor="middle" font-size="10" font-weight="normal" fill="#111" alignment-baseline="middle">Notificar</text>
<text x="360" y="629.8" text-anchor="middle" font-size="10" font-weight="normal" fill="#111" alignment-baseline="middle">prestadores</text>

<ellipse cx="578" cy="623" rx="108" ry="22" fill="#ECEFF1" stroke="#455A64" stroke-width="1.5"/>
<text x="578" y="616.2" text-anchor="middle" font-size="10" font-weight="normal" fill="#111" alignment-baseline="middle">Liberar WhatsApp</text>
<text x="578" y="629.8" text-anchor="middle" font-size="10" font-weight="normal" fill="#111" alignment-baseline="middle">do prestador</text>

<ellipse cx="868" cy="623" rx="108" ry="22" fill="#ECEFF1" stroke="#455A64" stroke-width="1.5"/>
<text x="868" y="616.2" text-anchor="middle" font-size="10" font-weight="normal" fill="#111" alignment-baseline="middle">Auto-confirmar</text>
<text x="868" y="629.8" text-anchor="middle" font-size="10" font-weight="normal" fill="#111" alignment-baseline="middle">conclusão</text>

<ellipse cx="1096" cy="623" rx="108" ry="22" fill="#ECEFF1" stroke="#455A64" stroke-width="1.5"/>
<text x="1096" y="616.2" text-anchor="middle" font-size="10" font-weight="normal" fill="#111" alignment-baseline="middle">Exibir aviso</text>
<text x="1096" y="629.8" text-anchor="middle" font-size="10" font-weight="normal" fill="#111" alignment-baseline="middle">de pagamento</text>

<circle cx="38" cy="356.5" r="7.5" fill="white" stroke="#333" stroke-width="1.5"/>
<line x1="38" y1="366.0" x2="38" y2="373.7" stroke="#333" stroke-width="1.5"/>
<line x1="26.6" y1="368.5" x2="49.4" y2="368.5" stroke="#333" stroke-width="1.5"/>
<line x1="38" y1="373.7" x2="28.3" y2="381.2" stroke="#333" stroke-width="1.5"/>
<line x1="38" y1="373.7" x2="47.7" y2="381.2" stroke="#333" stroke-width="1.5"/>
<text x="38" y="399.2" text-anchor="middle" font-size="13" font-weight="bold" fill="#222" alignment-baseline="middle">Cliente</text>

<circle cx="1522" cy="356.5" r="7.5" fill="white" stroke="#333" stroke-width="1.5"/>
<line x1="1522" y1="366.0" x2="1522" y2="373.7" stroke="#333" stroke-width="1.5"/>
<line x1="1510.6" y1="368.5" x2="1533.4" y2="368.5" stroke="#333" stroke-width="1.5"/>
<line x1="1522" y1="373.7" x2="1512.3" y2="381.2" stroke="#333" stroke-width="1.5"/>
<line x1="1522" y1="373.7" x2="1531.7" y2="381.2" stroke="#333" stroke-width="1.5"/>
<text x="1522" y="399.2" text-anchor="middle" font-size="13" font-weight="bold" fill="#222" alignment-baseline="middle">Profissional</text>

<circle cx="780" cy="856.5" r="7.5" fill="white" stroke="#333" stroke-width="1.5"/>
<line x1="780" y1="866.0" x2="780" y2="873.7" stroke="#333" stroke-width="1.5"/>
<line x1="768.6" y1="868.5" x2="791.4" y2="868.5" stroke="#333" stroke-width="1.5"/>
<line x1="780" y1="873.7" x2="770.3" y2="881.2" stroke="#333" stroke-width="1.5"/>
<line x1="780" y1="873.7" x2="789.7" y2="881.2" stroke="#333" stroke-width="1.5"/>
<text x="780" y="899.2" text-anchor="middle" font-size="13" font-weight="bold" fill="#222" alignment-baseline="middle">Sistema</text>

<rect x="1206" y="650" width="222" height="62" rx="6" fill="white" stroke="#B0BEC5" stroke-width="1"/>
<line x1="1214.0" y1="664.0" x2="1250.0" y2="664.0" stroke="#9E9E9E" stroke-width="1.2" stroke-dasharray="6,4"/>

<polygon points="1254,664 1245,660 1245,668" fill="#9E9E9E"/>
<text x="1344" y="664.0" text-anchor="middle" font-size="9" font-weight="normal" fill="#555" alignment-baseline="middle">«include» / «extend»</text>

<line x1="1214.0" y1="688.0" x2="1250.0" y2="688.0" stroke="#90A4AE" stroke-width="1.1"/>

<text x="1329" y="688.0" text-anchor="middle" font-size="9" font-weight="normal" fill="#555" alignment-baseline="middle">Associação ator–UC</text>

</svg>